#!OML:ASF H:\Dans Jumps\Project 1\Capture day 1\Session 1\subject.ASF
:FULLY-SPECIFIED
:DEGREES
391
root 0.535278 16.8849 -2.68562 8.11533 0.298135 -1.71364
lowerback 5.03712 -0.900791 -0.724983
upperback 6.18617 -1.27447 2.34709
thorax 3.63636 -0.724245 2.85444
lowerneck -13.1137 0.707169 -0.670664
upperneck 31.9197 1.51035 -1.00682
head 12.8053 0.445608 -0.0524078
rclavicle -2.08724e-015 1.05356e-014
rhumerus -19.1478 -15.1845 -82.8554
rradius 22.46
rwrist 33.535
rhand -21.2251 -25.2322
rfingers 7.12502
rthumb 5.15703 -55.1494
lclavicle -2.08724e-015 1.05356e-014
lhumerus -14.4978 -6.12263 90.9854
lradius 16.9206
lwrist 5.6633
lhand -28.0815 -6.90927
lfingers 7.12502
lthumb -1.46464 23.0654
rfemur -29.6027 -4.15548 20.5074
rtibia 45.9883
rfoot -20.6558 -9.83181
rtoes 4.63722
lfemur -31.3032 7.13087 -17.7542
ltibia 43.6594
lfoot -19.7613 0.504915
ltoes -3.27697
392
root 0.537621 16.8859 -2.68499 8.11284 0.316297 -1.7171
lowerback 5.03516 -0.908096 -0.725446
upperback 6.18454 -1.28413 2.34583
thorax 3.63626 -0.729032 2.85351
lowerneck -13.0955 0.708705 -0.680987
upperneck 31.9066 1.51016 -0.992376
head 12.7957 0.446334 -0.0451474
rclavicle -1.11319e-014 -1.92821e-014
rhumerus -19.1206 -15.1926 -82.8705
rradius 22.4727
rwrist 33.4894
rhand -21.2273 -25.199
rfingers 7.12502
rthumb 5.15492 -55.1163
lclavicle -1.11319e-014 -1.92821e-014
lhumerus -14.4245 -6.19372 91.0038
lradius 16.9606
lwrist 5.68926
lhand -28.0678 -6.80771
lfingers 7.12502
lthumb -1.45137 23.1671
rfemur -29.5808 -4.16086 20.5046
rtibia 45.9648
rfoot -20.659 -9.82846
rtoes 4.65916
lfemur -31.2952 7.13526 -17.7591
ltibia 43.6455
lfoot -19.7542 0.440217
ltoes -3.16428
393
root 0.539771 16.8871 -2.68439 8.11203 0.324011 -1.71673
lowerback 5.03005 -0.913209 -0.731522
upperback 6.17901 -1.29091 2.34225
thorax 3.63377 -0.732504 2.85326
lowerneck -13.0744 0.709945 -0.691483
upperneck 31.9091 1.50907 -0.975918
head 12.7919 0.446762 -0.0372383
rclavicle 4.96962e-015 -1.47101e-014
rhumerus -19.1044 -15.1688 -82.8914
rradius 22.4957
rwrist 33.4232
rhand -21.2295 -25.1764
rfingers 7.12502
rthumb 5.15271 -55.0937
lclavicle 4.96962e-015 -1.47101e-014
lhumerus -14.3656 -6.26327 91.0225
lradius 17.0085
lwrist 5.72271
lhand -28.0527 -6.71294
lfingers 7.12502
lthumb -1.4368 23.262
rfemur -29.5605 -4.1637 20.497
rtibia 45.9378
rfoot -20.6611 -9.81636
rtoes 4.6794
lfemur -31.2859 7.15541 -17.7706
ltibia 43.6275
lfoot -19.7472 0.371831
ltoes -3.05295
394
root 0.54172 16.8883 -2.68393 8.113 0.325517 -1.71641
lowerback 5.0214 -0.917516 -0.738746
upperback 6.17062 -1.29662 2.33814
thorax 3.6302 -0.735442 2.85304
lowerneck -13.0677 0.709696 -0.700436
upperneck 31.9414 1.50656 -0.960975
head 12.8038 0.446186 -0.0303412
rclavicle 6.55989e-015 -7.15625e-015
rhumerus -19.0938 -15.1286 -82.9156
rradius 22.5231
rwrist 33.3543
rhand -21.2274 -25.1615
rfingers 7.12502
rthumb 5.15478 -55.0788
lclavicle 6.55989e-015 -7.15625e-015
lhumerus -14.3202 -6.32561 91.0414
lradius 17.0659
lwrist 5.7564
lhand -28.0377 -6.62366
lfingers 7.12502
lthumb -1.42229 23.3513
rfemur -29.541 -4.16611 20.4895
rtibia 45.906
rfoot -20.6603 -9.79731
rtoes 4.69762
lfemur -31.2764 7.18879 -17.7834
ltibia 43.6055
lfoot -19.7391 0.296208
ltoes -2.93743
